<svg
                    width="96"
                    height="25"
                    viewBox="0 0 96 25"
                    fill="none"
                    xmlns="http://www.w3.org/2000/svg"
                >
                    <path
                        fill-rule="evenodd"
                        clip-rule="evenodd"
                        d="M0.0249864 5.18801H7.99779V24.7841C7.99779 24.7981 8.00921 24.8106 8.02313 24.8106H12.9183C12.9322 24.8106 12.9437 24.7981 12.9437 24.7841V5.18801H20.9165C20.9304 5.18801 20.9414 5.17692 20.9414 5.16297V0.256973C20.9414 0.243023 20.9304 0.231934 20.9165 0.231934H0.0249864C0.0110654 0.231934 0 0.243023 0 0.256973V5.16297C0 5.17692 0.0110654 5.18801 0.0249864 5.18801Z"
                        fill="#75FCC6"
                    />
                    <path
                        fill-rule="evenodd"
                        clip-rule="evenodd"
                        d="M24.0528 24.8106H28.9621C28.9761 24.8106 28.9872 24.7981 28.9872 24.7841V0.256973C28.9872 0.243023 28.9761 0.231934 28.9621 0.231934H24.0528C24.0388 0.231934 24.0273 0.243023 24.0273 0.256973V24.7841C24.0273 24.7981 24.0388 24.8106 24.0528 24.8106Z"
                        fill="#75FCC6"
                    />
                    <path
                        fill-rule="evenodd"
                        clip-rule="evenodd"
                        d="M32.2089 24.8106H53.1001C53.114 24.8106 53.125 24.7981 53.125 24.7841V19.8795C53.125 19.8656 53.114 19.8527 53.1001 19.8527H37.1295V14.9986H48.2059C48.2199 14.9986 48.2323 14.9875 48.2323 14.9735V10.069C48.2323 10.0536 48.2199 10.0425 48.2059 10.0425H37.1295V5.18801H53.1001C53.114 5.18801 53.125 5.17692 53.125 5.16297V0.256973C53.125 0.243023 53.114 0.231934 53.1001 0.231934H32.2089C32.195 0.231934 32.1836 0.243023 32.1836 0.256973V24.7841C32.1836 24.7981 32.195 24.8106 32.2089 24.8106Z"
                        fill="#75FCC6"
                    />
                    <path
                        fill-rule="evenodd"
                        clip-rule="evenodd"
                        d="M60.922 7.8737C60.9263 7.88086 60.9345 7.88622 60.9431 7.88622C60.9514 7.88622 60.96 7.88086 60.9653 7.8737L65.671 0.270924C65.6768 0.264128 65.6768 0.254112 65.6725 0.245884C65.6682 0.237657 65.6585 0.233364 65.6499 0.233364H56.2374C56.2278 0.233364 56.2192 0.237657 56.2152 0.245884C56.2095 0.254112 56.2095 0.264128 56.2152 0.270924L60.922 7.8737ZM60.9653 17.1702C60.9557 17.1549 60.9306 17.1549 60.922 17.1702L56.2152 24.7716C56.2095 24.7798 56.2095 24.7895 56.2152 24.7981C56.2192 24.8063 56.2278 24.8106 56.2374 24.8106H65.6499C65.6585 24.8106 65.6682 24.8063 65.6725 24.7981C65.6768 24.7895 65.6768 24.7798 65.671 24.7716L60.9653 17.1702ZM83.7003 0.231934C83.6988 0.231934 83.6988 0.231934 83.6974 0.231934H71.4202C71.4173 0.231934 71.4159 0.233364 71.4145 0.234795C71.4116 0.234795 71.4102 0.236226 71.4077 0.237657C71.4048 0.239088 71.4019 0.240161 71.4005 0.243023C71.3991 0.244453 71.3991 0.244453 71.3976 0.244453L63.8064 12.51C63.8007 12.5186 63.8007 12.5282 63.8064 12.5365L71.3976 24.7981C71.3976 24.7995 71.3991 24.7995 71.4005 24.7995C71.4048 24.8063 71.4116 24.8106 71.4202 24.8106H83.6974L83.6988 24.8091C90.4815 24.8091 95.9997 19.2968 95.9997 12.52C96.0011 5.74425 90.4829 0.231934 83.7003 0.231934ZM83.7003 19.8531C79.652 19.8531 76.3594 16.5636 76.3594 12.52C76.3594 8.47609 79.652 5.18694 83.7003 5.18694C87.7467 5.18694 91.0397 8.47609 91.0397 12.52C91.0397 16.5636 87.7467 19.8531 83.7003 19.8531Z"
                        fill="#75FCC6"
                    />
                </svg>